<?xml version="1.0" encoding="utf-8"?>
<!-- Generator: Adobe Illustrator 24.1.1, SVG Export Plug-In . SVG Version: 6.00 Build 0)  -->
<svg version="1.1" id="Layer_1" xmlns="http://www.w3.org/2000/svg" xmlns:xlink="http://www.w3.org/1999/xlink" x="0px" y="0px"
	 viewBox="0 0 512 512" style="enable-background:new 0 0 512 512;" xml:space="preserve">
<g>
	<path d="M256,23.3v23.3c57.9,0,110.1,23.4,148.1,61.3c37.9,38,61.3,90.2,61.3,148.1c0,57.9-23.4,110.1-61.3,148.1
		c-38,37.9-90.2,61.3-148.1,61.3c-57.9,0-110.1-23.4-148.1-61.3C70,366.1,46.6,313.9,46.5,256c0-57.9,23.4-110.1,61.3-148.1
		c38-37.9,90.2-61.3,148.1-61.3V23.3V0C114.6,0,0,114.6,0,256c0,141.4,114.6,256,256,256c141.4,0,256-114.6,256-256
		C512,114.6,397.4,0,256,0V23.3z"/>
	<path d="M272.5,365.5l93.1-93.1c4.3-4.3,6.8-10.3,6.8-16.5c0-6.1-2.5-12.1-6.8-16.5l-93.1-93.1c-9.1-9.1-23.8-9.1-32.9,0
		c-9.1,9.1-9.1,23.8,0,32.9l76.6,76.6l-76.6,76.6c-9.1,9.1-9.1,23.8,0,32.9C248.6,374.6,263.4,374.6,272.5,365.5L272.5,365.5z"/>
	<path d="M162.9,279.3h186.2c12.9,0,23.3-10.4,23.3-23.3c0-12.9-10.4-23.3-23.3-23.3H162.9c-12.9,0-23.3,10.4-23.3,23.3
		C139.6,268.9,150.1,279.3,162.9,279.3"/>
</g>
</svg>
